<svg width="500" height="500" viewBox="0 0 500 500" fill="none" xmlns="http://www.w3.org/2000/svg">
<rect width="500" height="500" fill="white"/>
<path fill-rule="evenodd" clip-rule="evenodd" d="M320.537 327.529L351.869 375H312.315L280.984 327.529H320.537ZM343.354 294.635H374.999V264.315H343.354V294.635ZM343.354 234.888H375V204.262H343.354V234.888ZM321.359 172.468L352.688 125H313.134L281.804 172.468H321.359ZM218.195 172.468L186.866 125H147.312L178.653 172.468H218.195ZM156.646 204.334V234.888H125V204.334H156.646ZM156.646 264.315V294.671H125V264.315H156.646ZM179.461 327.529L148.131 375H187.685L219.016 327.529H179.461Z" fill="black"/>
</svg>
