<svg width="1000" height="250" viewBox="0 0 1000 250" fill="none" xmlns="http://www.w3.org/2000/svg">
<rect width="1000" height="250" fill="white"/>
<path d="M157.964 176.956L179.27 209.236H152.373L131.068 176.956H157.964Z" fill="black"/>
<path d="M173.479 154.588H194.998V133.97H173.479V154.588Z" fill="black"/>
<path d="M173.479 113.96H194.998V93.1346H173.479V113.96Z" fill="black"/>
<path d="M158.522 71.5143L179.826 39.2361H152.93L131.626 71.5143H158.522Z" fill="black"/>
<path d="M88.3722 71.5143L67.0685 39.2361H40.1721L61.484 71.5143H88.3722Z" fill="black"/>
<path d="M46.5188 93.1829V113.96H25V93.1829H46.5188Z" fill="black"/>
<path d="M46.5188 133.97V154.612H25V133.97H46.5188Z" fill="black"/>
<path d="M62.0333 176.956L40.7286 209.236H67.6251L88.9299 176.956H62.0333Z" fill="black"/>
<path d="M265 195H856V209H265V195Z" fill="black"/>
<path d="M290.815 180.754H264.839V34.9531H295.698L362.495 145.109H363.667L362.104 102.336V34.9531H388.081V180.754H357.026L290.62 70.9883H289.448L290.815 112.395V180.754Z" fill="black"/>
<path d="M405.69 127.727C405.69 110.669 410.345 97.2904 419.655 87.5898C429.16 77.694 441.823 72.7461 457.643 72.7461C473.268 72.7461 485.866 77.6289 495.436 87.3945C505.072 97.2253 509.89 110.669 509.89 127.727C509.89 144.458 505.202 157.805 495.827 167.766C486.647 177.727 473.919 182.707 457.643 182.707C441.758 182.707 429.095 177.792 419.655 167.961C410.345 158.26 405.69 144.849 405.69 127.727ZM430.886 119.719V136.32C430.886 144.458 433.327 150.839 438.21 155.461C443.093 160.083 449.571 162.395 457.643 162.395C465.781 162.395 472.292 160.116 477.175 155.559C482.057 150.936 484.499 144.523 484.499 136.32V119.719C484.499 111.646 482.025 105.201 477.077 100.383C472.194 95.5651 465.716 93.1562 457.643 93.1562C449.505 93.1562 442.995 95.5651 438.112 100.383C433.294 105.201 430.886 111.646 430.886 119.719Z" fill="black"/>
<path d="M577.206 94.9141H555.624V160.93H577.206V180.754H551.229C537.753 180.754 531.015 174.146 531.015 160.93V94.9141H511.972V74.7969H531.015V40.7148H555.624V74.7969H577.206V94.9141Z" fill="black"/>
<path d="M616.788 180.754H592.081V33H616.788V93.9375H618.448C621.638 87.1667 626.293 81.9583 632.413 78.3125C638.533 74.6016 645.597 72.7461 653.604 72.7461C665.388 72.7461 674.438 76.6198 680.753 84.3672C687.068 92.0495 690.225 102.727 690.225 116.398V180.754H665.225V118.938C665.225 101.75 657.966 93.1562 643.448 93.1562C635.375 93.1562 628.897 96.0208 624.015 101.75C619.197 107.479 616.788 114.999 616.788 124.309V180.754Z" fill="black"/>
<path d="M735.569 59.7578H711.057V33H735.569V59.7578ZM735.569 180.754H711.057V74.7969H735.569V180.754Z" fill="black"/>
<path d="M782.475 180.754H757.768V74.7969H779.546L782.475 94.3281H784.136C787.456 87.4271 792.176 82.1211 798.296 78.4102C804.416 74.6341 811.414 72.7461 819.292 72.7461C831.076 72.7461 840.125 76.6523 846.44 84.4648C852.755 92.2122 855.913 102.922 855.913 116.594V180.754H830.913V119.133C830.913 102.206 823.654 93.7422 809.136 93.7422C801.063 93.7422 794.585 96.6393 789.702 102.434C784.884 108.163 782.475 115.682 782.475 124.992V180.754Z" fill="black"/>
<path d="M913.464 72.7461C921.276 72.7461 928.373 74.6016 934.753 78.3125C941.133 82.0234 945.853 87.1016 948.913 93.5469H950.475L953.307 74.7969H975.28V171.965C975.28 185.767 970.658 196.574 961.413 204.387C952.168 212.199 939.538 216.105 923.522 216.105C909.59 216.105 898.294 213.176 889.636 207.316C880.977 201.457 876.257 193.677 875.475 183.977H899.694C900.15 188.339 902.526 191.789 906.823 194.328C911.185 196.867 916.752 198.137 923.522 198.137C932.181 198.137 938.822 196.053 943.444 191.887C948.132 187.785 950.475 182.089 950.475 174.797V154.973H948.913C946.113 161.743 941.589 167.082 935.339 170.988C929.089 174.829 921.797 176.75 913.464 176.75C899.466 176.75 888.594 172.095 880.847 162.785C873.164 153.475 869.323 140.747 869.323 124.602C869.323 108.456 873.197 95.793 880.944 86.6133C888.692 77.3685 899.531 72.7461 913.464 72.7461ZM894.518 115.91V133.195C894.518 140.292 896.927 145.956 901.745 150.188C906.563 154.419 913.008 156.535 921.081 156.535C929.74 156.535 936.804 153.964 942.272 148.82C947.741 143.677 950.475 137.134 950.475 129.191V119.914C950.475 112.427 947.741 106.047 942.272 100.773C936.869 95.5651 929.805 92.9609 921.081 92.9609C912.813 92.9609 906.302 95.0768 901.55 99.3086C896.862 103.475 894.518 109.009 894.518 115.91Z" fill="black"/>
</svg>
