<svg width="500" height="500" viewBox="0 0 500 500" fill="none" xmlns="http://www.w3.org/2000/svg">
<rect width="500" height="500" fill="white"/>
<path fill-rule="evenodd" clip-rule="evenodd" d="M284.769 288.265L300.435 312H280.658L264.992 288.265H284.769ZM296.177 271.818H312V256.658H296.177V271.818ZM296.177 241.944H312V226.631H296.177V241.944ZM285.179 210.734L300.844 187H281.067L265.402 210.734H285.179ZM233.598 210.734L217.933 187H198.156L213.827 210.734H233.598ZM202.823 226.667V241.944H187V226.667H202.823ZM202.823 256.658V271.835H187V256.658H202.823ZM214.231 288.265L198.565 312H218.342L234.008 288.265H214.231Z" fill="black"/>
</svg>
